<?xml version="1.0" encoding="utf-8"?>
<!-- Generator: Adobe Illustrator 16.0.0, SVG Export Plug-In . SVG Version: 6.00 Build 0)  -->
<!DOCTYPE svg PUBLIC "-//W3C//DTD SVG 1.1//EN" "http://www.w3.org/Graphics/SVG/1.1/DTD/svg11.dtd">
<svg version="1.1" id="Capa_1" xmlns="http://www.w3.org/2000/svg" xmlns:xlink="http://www.w3.org/1999/xlink" x="0px" y="0px"
	 width="50.113px" height="51.023px" viewBox="1774.944 257.953 50.113 51.023"
	 style="enable-background:new 1774.944 257.953 50.113 51.023;" xml:space="preserve">
<g id="XMLID_100_">
	<path id="XMLID_99_" style="fill:#FFD949;" d="M1802.733,308.977c-12.329,0-22.323-11.422-22.323-25.512
		s9.994-25.512,22.323-25.512c12.328,0,22.323,11.422,22.323,25.512S1815.062,308.977,1802.733,308.977"/>
	<path id="XMLID_132_" style="fill:#F4BF1A;" d="M1780.411,283.465c0-13.031,8.551-23.773,19.589-25.315
		c-0.896-0.125-1.808-0.197-2.733-0.197c-12.329,0-22.323,11.422-22.323,25.512s9.994,25.512,22.323,25.512
		c0.926,0,1.837-0.072,2.733-0.196C1788.961,307.239,1780.411,296.496,1780.411,283.465"/>
	<path id="XMLID_115_" style="fill:#F4BF1A;" d="M1802.811,303.988h-0.078c-0.638,0-1.28-0.038-1.908-0.113
		c-0.501-0.06-0.857-0.513-0.798-1.013c0.06-0.5,0.517-0.85,1.013-0.797c0.559,0.066,1.128,0.101,1.693,0.101
		c0.504,0,0.95,0.408,0.95,0.911S1803.315,303.988,1802.811,303.988 M1808.109,303.006c-0.368,0-0.716-0.225-0.854-0.59
		c-0.178-0.472,0.061-0.997,0.531-1.174c0.525-0.198,1.049-0.431,1.555-0.689c0.448-0.231,0.997-0.054,1.228,0.395
		c0.229,0.447,0.053,0.996-0.396,1.226c-0.567,0.292-1.153,0.551-1.744,0.773C1808.325,302.987,1808.217,303.006,1808.109,303.006
		 M1795.777,302.31c-0.139,0-0.28-0.031-0.412-0.099c-0.561-0.285-1.115-0.605-1.648-0.955c-0.421-0.275-0.539-0.839-0.264-1.261
		c0.277-0.421,0.84-0.539,1.262-0.264c0.477,0.313,0.973,0.601,1.474,0.854c0.448,0.228,0.628,0.776,0.4,1.225
		C1796.429,302.128,1796.108,302.31,1795.777,302.31 M1814.1,299.069c-0.231,0-0.464-0.089-0.642-0.265
		c-0.356-0.354-0.359-0.931-0.005-1.288c0.396-0.399,0.781-0.829,1.146-1.277c0.317-0.391,0.892-0.449,1.281-0.133
		c0.39,0.317,0.45,0.892,0.133,1.282c-0.402,0.494-0.828,0.969-1.266,1.41C1814.568,298.978,1814.333,299.069,1814.1,299.069
		 M1790.211,297.785c-0.263,0-0.525-0.114-0.705-0.332c-0.396-0.483-0.775-0.994-1.128-1.518c-0.282-0.417-0.171-0.984,0.246-1.266
		c0.417-0.281,0.983-0.172,1.265,0.246c0.322,0.478,0.667,0.942,1.027,1.38c0.319,0.39,0.262,0.964-0.127,1.283
		C1790.621,297.718,1790.415,297.785,1790.211,297.785 M1818.105,293.105c-0.122,0-0.245-0.024-0.364-0.075
		c-0.462-0.201-0.672-0.738-0.472-1.2c0.229-0.523,0.438-1.066,0.621-1.612c0.16-0.476,0.677-0.733,1.154-0.572
		c0.477,0.161,0.733,0.677,0.572,1.154c-0.2,0.595-0.428,1.187-0.677,1.758C1818.79,292.9,1818.455,293.105,1818.105,293.105
		 M1786.738,291.495c-0.379,0-0.733-0.24-0.863-0.618c-0.201-0.591-0.38-1.198-0.531-1.807c-0.122-0.488,0.175-0.982,0.664-1.104
		c0.486-0.124,0.983,0.175,1.104,0.663c0.14,0.559,0.303,1.117,0.488,1.658c0.163,0.477-0.092,0.994-0.567,1.156
		C1786.936,291.479,1786.836,291.495,1786.738,291.495 M1819.826,286.122c-0.023,0-0.047-0.001-0.071-0.003
		c-0.502-0.039-0.876-0.478-0.838-0.979c0.043-0.553,0.064-1.116,0.064-1.675c0-0.503,0.408-0.94,0.911-0.94
		s0.911,0.378,0.911,0.881v0.059c0,0.605-0.023,1.217-0.07,1.816C1820.697,285.758,1820.297,286.122,1819.826,286.122
		 M1785.573,284.386c-0.503,0-0.911-0.397-0.911-0.901v-0.02c0-0.622,0.024-1.247,0.073-1.856c0.04-0.501,0.477-0.873,0.98-0.836
		c0.502,0.04,0.877,0.479,0.837,0.98c-0.045,0.563-0.067,1.139-0.067,1.712C1786.484,283.968,1786.076,284.386,1785.573,284.386
		 M1819.227,278.953c-0.407,0-0.777-0.275-0.882-0.688c-0.142-0.561-0.306-1.118-0.492-1.659c-0.163-0.476,0.091-0.994,0.567-1.157
		c0.477-0.165,0.994,0.09,1.156,0.567c0.203,0.588,0.382,1.195,0.535,1.803c0.123,0.488-0.173,0.983-0.66,1.106
		C1819.377,278.945,1819.303,278.953,1819.227,278.953 M1786.727,277.298c-0.098,0-0.196-0.017-0.293-0.049
		c-0.477-0.161-0.732-0.679-0.57-1.155c0.201-0.592,0.43-1.184,0.681-1.757c0.202-0.462,0.738-0.67,1.2-0.47
		c0.461,0.201,0.672,0.739,0.47,1.2c-0.23,0.526-0.44,1.069-0.624,1.612C1787.459,277.058,1787.106,277.298,1786.727,277.298
		 M1816.312,272.384c-0.293,0-0.579-0.141-0.756-0.401c-0.322-0.476-0.669-0.939-1.029-1.378c-0.32-0.388-0.265-0.963,0.124-1.283
		c0.388-0.32,0.963-0.264,1.282,0.124c0.396,0.482,0.777,0.991,1.132,1.515c0.282,0.417,0.174,0.983-0.243,1.266
		C1816.665,272.333,1816.488,272.384,1816.312,272.384 M1790.185,270.998c-0.202,0-0.406-0.067-0.576-0.206
		c-0.39-0.318-0.447-0.892-0.128-1.282c0.402-0.492,0.828-0.966,1.267-1.408c0.355-0.355,0.933-0.358,1.289-0.003
		c0.357,0.355,0.359,0.931,0.004,1.288c-0.397,0.4-0.784,0.829-1.149,1.277C1790.713,270.884,1790.45,270.998,1790.185,270.998
		 M1811.216,267.326c-0.17,0-0.343-0.047-0.495-0.147c-0.477-0.311-0.975-0.597-1.479-0.851c-0.448-0.227-0.628-0.774-0.401-1.224
		c0.227-0.447,0.773-0.63,1.224-0.402c0.563,0.283,1.118,0.603,1.65,0.95c0.422,0.275,0.541,0.84,0.266,1.261
		C1811.806,267.181,1811.515,267.326,1811.216,267.326 M1795.744,266.461c-0.332,0-0.651-0.182-0.813-0.498
		c-0.229-0.448-0.05-0.997,0.398-1.226c0.567-0.289,1.154-0.548,1.746-0.769c0.47-0.177,0.996,0.062,1.173,0.534
		c0.176,0.471-0.063,0.996-0.535,1.172c-0.526,0.197-1.05,0.427-1.557,0.686C1796.024,266.428,1795.883,266.461,1795.744,266.461
		 M1804.496,264.867c-0.035,0-0.07-0.002-0.106-0.006c-0.548-0.064-1.106-0.096-1.657-0.096c-0.503,0-0.93-0.408-0.93-0.911
		s0.389-0.911,0.892-0.911h0.038c0.621,0,1.25,0.037,1.868,0.108c0.499,0.058,0.858,0.509,0.8,1.01
		C1805.348,264.525,1804.952,264.867,1804.496,264.867"/>
	<path id="XMLID_114_" style="fill:#DCA815;" d="M1780.409,284.376h-5.465c0.018,0.613,0.053,1.221,0.108,1.822h5.469
		C1780.465,285.597,1780.428,284.99,1780.409,284.376"/>
	<path id="XMLID_113_" style="fill:#DCA815;" d="M1780.617,279.821h-5.463c-0.076,0.601-0.13,1.209-0.168,1.822h5.466
		C1780.491,281.03,1780.542,280.421,1780.617,279.821"/>
	<path id="XMLID_112_" style="fill:#DCA815;" d="M1780.91,288.932h-5.467c0.118,0.616,0.255,1.224,0.411,1.822h5.466
		C1781.164,290.156,1781.028,289.548,1780.91,288.932"/>
	<path id="XMLID_111_" style="fill:#DCA815;" d="M1782.185,293.488h-5.471c0.232,0.621,0.489,1.228,0.763,1.822h5.468
		C1782.671,294.716,1782.417,294.108,1782.185,293.488"/>
	<path id="XMLID_110_" style="fill:#DCA815;" d="M1781.569,275.265h-5.46c-0.177,0.599-0.343,1.205-0.482,1.822h5.473
		C1781.239,276.471,1781.393,275.862,1781.569,275.265"/>
	<path id="XMLID_109_" style="fill:#DCA815;" d="M1783.384,270.709h-5.467c-0.3,0.593-0.584,1.2-0.843,1.822h5.471
		C1782.804,271.91,1783.084,271.302,1783.384,270.709"/>
	<path id="XMLID_108_" style="fill:#DCA815;" d="M1787.103,265.242h-5.473c-0.519,0.58-1.012,1.187-1.478,1.822h5.471
		C1786.091,266.429,1786.584,265.822,1787.103,265.242"/>
	<path id="XMLID_107_" style="fill:#DCA815;" d="M1792.674,260.687h-5.479c-0.931,0.538-1.824,1.146-2.675,1.822h5.475
		C1790.848,261.833,1791.742,261.224,1792.674,260.687"/>
	<path id="XMLID_106_" style="fill:#DCA815;" d="M1784.983,298.954h-5.47c0.423,0.632,0.87,1.239,1.341,1.822h5.473
		C1785.856,300.194,1785.407,299.586,1784.983,298.954"/>
	<path id="XMLID_105_" style="fill:#DCA815;" d="M1783.446,303.51c0.732,0.659,1.498,1.271,2.3,1.822h5.479
		c-0.805-0.553-1.58-1.161-2.314-1.822H1783.446z"/>
</g>
</svg>
