<?xml version="1.0" encoding="utf-8"?>
<!-- Generator: Adobe Illustrator 16.0.0, SVG Export Plug-In . SVG Version: 6.00 Build 0)  -->
<!DOCTYPE svg PUBLIC "-//W3C//DTD SVG 1.1//EN" "http://www.w3.org/Graphics/SVG/1.1/DTD/svg11.dtd">
<svg version="1.1" xmlns="http://www.w3.org/2000/svg" xmlns:xlink="http://www.w3.org/1999/xlink" x="0px" y="0px" width="26px"
	 height="21.002px" viewBox="0 0 26 21.002" style="enable-background:new 0 0 26 21.002;" xml:space="preserve">
<g id="Group_1_1_">
	<g id="wyloguj">
	</g>
	<g id="witaj_mafjaboy69">
	</g>
	<g id="_x30________4">
	</g>
	<g id="Rectangle_1_2_" style="enable-background:new    ;">
	</g>
	<g id="Rectangle_1_copy_2_" style="enable-background:new    ;">
	</g>
	<g id="DODAJ_PLIK_______x2B_">
	</g>
	<g id="SEARCH">
	</g>
	<g id="Rectangle_12_xA0_Obraz_1_">
	</g>
</g>
<g id="czarny_xA0_Obraz_1_">
</g>
<g id="cog-wheel-silhouette_xA0_Obraz_1_">
</g>
<g id="piggy-bank_xA0_Obraz_1_">
</g>
<g id="Shape_1_1_" style="display:none;enable-background:new    ;">
	<g id="Shape_1" style="display:inline;">
		<g>
			<path style="fill-rule:evenodd;clip-rule:evenodd;fill:#474747;" d="M17.035,10.501L26,18.658V2.344L17.035,10.501z M13,14.173
				l-2.56-2.329l-8.965,8.157h23.048l-8.964-8.157L13,14.173z M24.523,1.001H1.476L13,11.487L24.523,1.001z M0,2.344v16.314
				l8.965-8.157L0,2.344z"/>
		</g>
	</g>
</g>
<g id="Forma_1_2_" style="enable-background:new    ;">
	<g id="Forma_1_1_">
		<g>
			<path style="fill:#474747;" d="M22.094,5.229c-0.939-1.608-2.213-2.883-3.822-3.821C16.662,0.469,14.905,0,13,0
				S9.338,0.469,7.729,1.408C6.12,2.347,4.846,3.621,3.907,5.229c-0.939,1.609-1.409,3.366-1.409,5.271s0.47,3.662,1.408,5.271
				c0.939,1.608,2.213,2.883,3.822,3.821c1.609,0.939,3.366,1.408,5.271,1.408s3.662-0.469,5.271-1.408
				c1.609-0.938,2.883-2.213,3.822-3.821c0.938-1.609,1.408-3.366,1.408-5.271S23.032,6.839,22.094,5.229z M14.75,17.051
				c0,0.128-0.041,0.234-0.123,0.321s-0.182,0.13-0.301,0.13h-2.625c-0.119,0-0.224-0.046-0.314-0.137
				c-0.091-0.091-0.137-0.196-0.137-0.314v-2.598c0-0.119,0.045-0.224,0.137-0.314c0.091-0.092,0.196-0.137,0.314-0.137h2.625
				c0.119,0,0.219,0.043,0.301,0.13c0.082,0.086,0.123,0.193,0.123,0.321V17.051z M14.723,12.347
				c-0.009,0.092-0.057,0.171-0.143,0.239c-0.088,0.068-0.194,0.103-0.322,0.103h-2.529c-0.127,0-0.237-0.034-0.328-0.103
				s-0.137-0.147-0.137-0.239l-0.232-8.491c0-0.109,0.045-0.191,0.137-0.246C11.259,3.536,11.369,3.5,11.496,3.5h3.009
				c0.128,0,0.237,0.036,0.328,0.109c0.091,0.055,0.136,0.137,0.136,0.246L14.723,12.347z"/>
		</g>
	</g>
</g>
<g id="king-crown_xA0_Obraz_1_">
</g>
<g id="_x3C_Grupo_x3E__xA0_Obraz_1_">
</g>
<g id="Inteligentny_obiekt_wektorowy_xA0_Obraz_1_">
</g>
</svg>
