<?xml version="1.0" encoding="utf-8"?>
<!-- Generator: Adobe Illustrator 16.0.0, SVG Export Plug-In . SVG Version: 6.00 Build 0)  -->
<!DOCTYPE svg PUBLIC "-//W3C//DTD SVG 1.1//EN" "http://www.w3.org/Graphics/SVG/1.1/DTD/svg11.dtd">
<svg version="1.1" xmlns="http://www.w3.org/2000/svg" xmlns:xlink="http://www.w3.org/1999/xlink" x="0px" y="0px"
	 width="30.752px" height="28.004px" viewBox="0 0 30.752 28.004" style="enable-background:new 0 0 30.752 28.004;"
	 xml:space="preserve">
<g id="Background_xA0_Obraz_1_">
</g>
<g id="gura_xA0_Obraz_1_">
</g>
<g id="gura_zalogowany_xA0_Obraz_1_">
</g>
<g id="Group_1_1_">
	<g id="Rectangle_14_copy__x2B__Rectangle_15_2_" style="enable-background:new    ;">
	</g>
	<g id="NOTEBOOK">
	</g>
	<g id="_x3E__4_">
	</g>
	<g id="_x3E__x0D__x3E__x0D__x3E__x0D__x3E__x0D__x3E__x03__x3E__x03_">
	</g>
	<g id="aSUS_KSD_K5OAB_ACER_TOSHIBA_SAMSUNG_1_">
	</g>
	<g id="back__x2B__Rectangle_15_copy_2_xA0_Obraz_1_">
	</g>
	<g id="back_1_">
	</g>
	<g id="Rectangle_1_2_" style="enable-background:new    ;">
	</g>
	<g id="_x3C_Tekst_x3E_">
	</g>
	<g id="DODAJ_model____________x2B_">
	</g>
</g>
<g id="Group_2_1_">
	<g id="Rectangle_14_copy_2__x2B__Rectangle_15_copy_2_" style="enable-background:new    ;">
	</g>
	<g id="k5oab">
	</g>
	<g id="_x3E__3_">
	</g>
	<g id="IMAGE_INFO_BIOS_kbc_x2F_ec_BOARD_VIEV_SCHEMATICS_SOLUTIONS_OTHERS_1_">
	</g>
	<g id="back">
	</g>
	<g id="do">
	</g>
</g>
<g id="Group_3_1_">
	<g id="czarny_xA0_Obraz_1_">
	</g>
	<g id="_x0D_NOTEBOOK__________x0D_PC__x0D_tblet_x0D_">
	</g>
	<g id="tutorial_x0D_software_x0D_">
	</g>
	<g id="_x3E__2_">
	</g>
	<g id="_x3E__1_">
	</g>
	<g id="_x3E_">
	</g>
	<g id="Forma_1" style="display:none;">
		<g style="display:inline;">
			<path style="fill:#2E9995;" d="M7.036,18.314h16.68V7.722H7.036V18.314z M28.311,20.027h-1.515V5.289
				c0-0.377-0.306-0.682-0.683-0.682h-2.28H10.087H4.639c-0.377,0-0.683,0.305-0.683,0.682v14.738H2.44
				c-0.377,0-0.682,0.305-0.682,0.682c0,1.481,1.207,2.688,2.691,2.688h21.852c1.484,0,2.691-1.206,2.691-2.688
				C28.993,20.332,28.688,20.027,28.311,20.027z M25.08,18.995c0,0.376-0.305,0.682-0.682,0.682H6.354
				c-0.377,0-0.683-0.306-0.683-0.682V7.041c0-0.376,0.306-0.682,0.683-0.682h18.044c0.377,0,0.682,0.306,0.682,0.682V18.995z"/>
		</g>
	</g>
	<g id="Forma_1_1_" style="display:none;">
		<g style="display:inline;">
			<path style="fill:#474747;" d="M8.735,15.977h8.816c0.368,0,0.666-0.299,0.666-0.667c0-0.369-0.298-0.668-0.666-0.668H8.735
				c-0.367,0-0.665,0.299-0.665,0.668C8.07,15.678,8.368,15.977,8.735,15.977z M8.735,13.019h12.58c0.368,0,0.665-0.299,0.665-0.668
				s-0.297-0.668-0.665-0.668H8.735c-0.367,0-0.665,0.299-0.665,0.668S8.368,13.019,8.735,13.019z M8.735,10.474h13.338
				c0.368,0,0.666-0.299,0.666-0.668v-5.07c0-0.369-0.298-0.668-0.666-0.668H8.735c-0.367,0-0.665,0.299-0.665,0.668v5.07
				C8.07,10.175,8.368,10.474,8.735,10.474z M8.735,18.936h11.188c0.368,0,0.665-0.299,0.665-0.668c0-0.368-0.297-0.667-0.665-0.667
				H8.735c-0.367,0-0.665,0.299-0.665,0.667C8.07,18.637,8.368,18.936,8.735,18.936z M25.071,0.075H5.681
				c-0.735,0-1.334,0.601-1.334,1.339V26.59c0,0.739,0.599,1.338,1.334,1.338h19.39c0.736,0,1.334-0.6,1.334-1.338V1.414
				C26.405,0.676,25.807,0.075,25.071,0.075z M15.376,26.208c-0.462,0-0.837-0.376-0.837-0.841c0-0.464,0.375-0.841,0.837-0.841
				c0.463,0,0.838,0.377,0.838,0.841S15.839,26.208,15.376,26.208z M24.197,23.031H6.555V2.597h17.642V23.031z M8.735,21.895h11.188
				c0.368,0,0.665-0.299,0.665-0.668c0-0.368-0.297-0.668-0.665-0.668H8.735c-0.367,0-0.665,0.3-0.665,0.668
				C8.07,21.596,8.368,21.895,8.735,21.895z"/>
		</g>
	</g>
	<g id="Forma_1_2_" style="display:none;">
		<g style="display:inline;">
			<path style="fill:#474747;" d="M8.258,19.692v-6.081H2.283c-0.418,0-0.756-0.337-0.756-0.754c0-0.416,0.338-0.754,0.756-0.754
				h5.976v-1.941H2.283c-0.418,0-0.756-0.338-0.756-0.754c0-0.417,0.338-0.755,0.756-0.755h5.976V7.25
				c0-0.187,0.027-0.366,0.074-0.538h-6.05c-0.418,0-0.756-0.337-0.756-0.754c0-0.416,0.338-0.754,0.756-0.754h7.509
				c0.067,0,0.131,0.012,0.194,0.028c0.105-0.018,0.213-0.028,0.324-0.028h1.765V3.092c0-0.417-0.338-0.754-0.756-0.754H0.756
				C0.338,2.338,0,2.675,0,3.092v21.818c0,0.417,0.338,0.755,0.756,0.755h10.563c0.417,0,0.756-0.338,0.756-0.755v-3.173H10.31
				C9.179,21.738,8.258,20.82,8.258,19.692z M6.038,21.256c-0.644,0-1.166-0.521-1.166-1.163c0-0.642,0.522-1.162,1.166-1.162
				c0.644,0,1.166,0.521,1.166,1.162C7.203,20.736,6.681,21.256,6.038,21.256z M30.213,6.712H10.31c-0.297,0-0.539,0.24-0.539,0.537
				v12.442c0,0.297,0.242,0.538,0.539,0.538h19.903c0.297,0,0.539-0.241,0.539-0.538V7.25C30.752,6.953,30.51,6.712,30.213,6.712z
				 M24.697,24.157h-2.016v-2.419h-4.839v2.419h-2.017c-0.418,0-0.756,0.338-0.756,0.755c0,0.416,0.338,0.754,0.756,0.754h2.772
				h3.327h2.772c0.418,0,0.756-0.338,0.756-0.754C25.454,24.495,25.115,24.157,24.697,24.157z"/>
		</g>
	</g>
	<g id="Forma_1_3_" style="display:none;">
		<g style="display:inline;">
			<path style="fill:#474747;" d="M29.104,23.751l-5.486-5.487l3.914-2.262c0.307-0.177,0.484-0.513,0.459-0.865
				s-0.25-0.659-0.578-0.79l-9.248-3.689c0.178-0.693,0.27-1.404,0.27-2.127c0-4.703-3.825-8.53-8.527-8.53
				C5.203,0,1.378,3.827,1.378,8.53c0,4.704,3.825,8.53,8.527,8.53c0.723,0,1.435-0.092,2.127-0.271l3.688,9.251
				c0.132,0.328,0.438,0.553,0.79,0.578c0.354,0.025,0.688-0.152,0.865-0.458l2.261-3.915l5.486,5.487
				c0.173,0.174,0.407,0.271,0.651,0.271c0.245,0,0.479-0.098,0.652-0.271l2.677-2.677C29.464,24.695,29.464,24.111,29.104,23.751z
				 M9.957,7.383C9.615,7.246,9.225,7.326,8.964,7.587S8.623,8.238,8.76,8.581l1.169,2.932c-1.646-0.022-2.991-1.374-3.005-3.021
				C6.918,7.698,7.22,6.955,7.775,6.399c0.55-0.55,1.283-0.852,2.067-0.852c0.009,0,0.017,0,0.024,0
				c1.646,0.014,2.997,1.359,3.02,3.004L9.957,7.383z M16.435,9.967l-1.752-0.699c0.034-0.235,0.051-0.474,0.049-0.713
				c-0.021-2.654-2.196-4.83-4.85-4.852c-0.013,0-0.025,0-0.039,0c-1.276,0-2.473,0.494-3.371,1.393
				C5.564,6.003,5.07,7.215,5.08,8.507c0.021,2.653,2.196,4.829,4.85,4.851c0.013,0,0.024,0,0.037,0
				c0.228,0,0.454-0.018,0.678-0.049l0.698,1.751c-0.47,0.104-0.95,0.156-1.438,0.156c-3.686,0-6.684-2.999-6.684-6.686
				S6.22,1.845,9.906,1.845c3.686,0,6.684,2.999,6.684,6.686C16.59,9.017,16.537,9.497,16.435,9.967z"/>
		</g>
	</g>
	<g id="Forma_1_4_">
		<g>
			<path style="fill:#474747;" d="M26.025,18.226l-1.297,0.002c-0.229,0-0.449,0.09-0.608,0.248
				c-0.391,0.389-0.913,0.604-1.472,0.604c-1.131,0.001-2.053-0.883-2.054-1.97c0-1.088,0.918-1.973,2.047-1.975
				c0.559-0.001,1.083,0.212,1.475,0.599c0.159,0.157,0.378,0.247,0.607,0.246l1.296-0.001c0.225-0.001,0.44-0.087,0.598-0.239
				c0.158-0.153,0.248-0.359,0.248-0.575c0,0,0,0,0-0.001l-0.01-6.512c0-0.216-0.09-0.423-0.249-0.574
				c-0.159-0.152-0.375-0.238-0.599-0.238l-7.43,0.012h-1.562l-0.001-0.768V7.082c0-0.31,0.131-0.605,0.362-0.822
				c0.563-0.524,0.874-1.227,0.874-1.976V4.267c-0.002-1.524-1.29-2.764-2.874-2.771c-1.584,0.007-2.872,1.246-2.874,2.771v0.017
				c0,0.749,0.311,1.451,0.874,1.976c0.231,0.217,0.362,0.513,0.362,0.822v0.003l-0.001,0.768h-1.562L4.745,7.84
				c-0.225,0-0.44,0.086-0.599,0.238C3.987,8.23,3.897,8.437,3.897,8.653l-0.01,6.512c0,0.001,0,0.001,0,0.001
				c0,0.216,0.089,0.422,0.247,0.575c0.158,0.152,0.374,0.238,0.598,0.239l1.297,0.001c0.229,0.001,0.448-0.089,0.607-0.246
				c0.392-0.387,0.915-0.6,1.474-0.599c1.129,0.002,2.047,0.887,2.047,1.975c-0.001,1.087-0.923,1.971-2.054,1.97
				c-0.558-0.001-1.081-0.216-1.471-0.604c-0.16-0.158-0.379-0.248-0.608-0.248l-1.297-0.002c-0.467-0.001-0.846,0.362-0.847,0.812
				l0.009,6.649v0.001c0,0.448,0.378,0.813,0.845,0.813l8.63,0.006c0.225,0,0.44-0.085,0.599-0.237
				c0.159-0.152,0.248-0.359,0.249-0.575l0.001-0.689c0-0.001,0-0.001,0-0.002c0-0.22-0.093-0.431-0.257-0.584
				c-0.4-0.373-0.621-0.872-0.621-1.404v-0.011c0.002-1.083,0.917-1.964,2.042-1.969c1.125,0.005,2.04,0.886,2.042,1.969v0.011
				c0,0.532-0.221,1.031-0.621,1.404c-0.164,0.153-0.257,0.364-0.257,0.584c0,0.001,0,0.001,0,0.002l0.001,0.689
				c0,0.216,0.09,0.423,0.249,0.575c0.159,0.152,0.375,0.237,0.599,0.237l8.63-0.006c0.467-0.001,0.845-0.365,0.845-0.813v-0.001
				l0.009-6.649C26.872,18.588,26.493,18.225,26.025,18.226z"/>
		</g>
	</g>
</g>
</svg>
