<?xml version="1.0" encoding="utf-8"?>
<!-- Generator: Adobe Illustrator 16.0.0, SVG Export Plug-In . SVG Version: 6.00 Build 0)  -->
<!DOCTYPE svg PUBLIC "-//W3C//DTD SVG 1.1//EN" "http://www.w3.org/Graphics/SVG/1.1/DTD/svg11.dtd">
<svg version="1.1" xmlns="http://www.w3.org/2000/svg" xmlns:xlink="http://www.w3.org/1999/xlink" x="0px" y="0px" width="11.25px"
	 height="6.791px" viewBox="0 0 11.25 6.791" style="enable-background:new 0 0 11.25 6.791;" xml:space="preserve">
<g id="Background_xA0_Obraz_1_" style="display:none;">
	
		<image style="display:inline;overflow:visible;" width="1300" height="942" id="Background_xA0_Obraz" xlink:href="BB8ED0CA.jpg"  transform="matrix(1 0 0 1 -554.0264 -371.3779)">
	</image>
</g>
<g id="Layer_2_xA0_Obraz_1_" style="display:none;">
	
		<image style="display:inline;overflow:visible;" width="1023" height="942" id="Layer_2_xA0_Obraz" xlink:href="BB8ED0CE.png"  transform="matrix(1 0 0 1 -277.0264 -371.3779)">
	</image>
</g>
<g id="Rectangle_10_1_" style="display:none;enable-background:new    ;">
	<g id="Rectangle_10" style="display:inline;">
		<g>
			<rect x="-546.026" y="-371.378" style="fill-rule:evenodd;clip-rule:evenodd;fill:#F8F8F8;" width="1292" height="942"/>
		</g>
	</g>
</g>
<g id="REGISTRY" style="display:none;">
	<g style="display:inline;">
		<path style="fill:#1E1E1E;" d="M-269.026-283.378v-10.5h6v1.5h-4.5v3h4.5v1.5h-1.5v1.5h-1.5v-1.5h-1.5v4.5H-269.026z
			 M-264.526-284.878v-1.5h1.5v1.5H-264.526z M-263.026-289.378v-3h1.5v3H-263.026z M-263.026-283.378v-1.5h1.5v1.5H-263.026z"/>
		<path style="fill:#1E1E1E;" d="M-260.026-283.378v-10.5h7.5v1.5h-6v3h4.5v1.5h-4.5v3h6v1.5H-260.026z"/>
		<path style="fill:#1E1E1E;" d="M-251.026-284.878v-7.5h1.5v7.5H-251.026z M-249.526-292.378v-1.5h4.5v1.5H-249.526z
			 M-249.526-283.378v-1.5h4.5v-3h-3v-1.5h4.5v6H-249.526z M-245.026-290.878v-1.5h1.5v1.5H-245.026z"/>
		<path style="fill:#1E1E1E;" d="M-242.026-283.378v-1.5h1.5v-7.5h-1.5v-1.5h4.5v1.5h-1.5v7.5h1.5v1.5H-242.026z"/>
		<path style="fill:#1E1E1E;" d="M-236.026-289.378v-3h1.5v3H-236.026z M-236.026-283.378v-1.5h6v1.5H-236.026z M-234.526-292.378
			v-1.5h6v1.5H-234.526z M-234.526-287.878v-1.5h4.5v1.5H-234.526z M-230.026-284.878v-3h1.5v3H-230.026z"/>
		<path style="fill:#1E1E1E;" d="M-224.026-283.378v-9h-3v-1.5h7.5v1.5h-3v9H-224.026z"/>
		<path style="fill:#1E1E1E;" d="M-218.026-283.378v-10.5h6v1.5h-4.5v3h4.5v1.5h-1.5v1.5h-1.5v-1.5h-1.5v4.5H-218.026z
			 M-213.526-284.878v-1.5h1.5v1.5H-213.526z M-212.026-289.378v-3h1.5v3H-212.026z M-212.026-283.378v-1.5h1.5v1.5H-212.026z"/>
		<path style="fill:#1E1E1E;" d="M-209.026-289.378v-4.5h1.5v4.5H-209.026z M-207.526-287.878v-1.5h1.5v1.5H-207.526z
			 M-206.026-283.378v-4.5h1.5v4.5H-206.026z M-204.526-287.878v-1.5h1.5v1.5H-204.526z M-203.026-289.378v-4.5h1.5v4.5H-203.026z"
			/>
	</g>
</g>
<g id="Rectangle_30_xA0_Obraz_1_" style="display:none;">
	
		<image style="display:inline;overflow:visible;" width="683" height="810" id="Rectangle_30_xA0_Obraz" xlink:href="BB8ED0C9.png"  transform="matrix(1 0 0 1 -306.0264 -264.3779)">
	</image>
</g>
<g id="menu_prawe_xA0_Obraz_1_" style="display:none;">
	
		<image style="display:inline;overflow:visible;" width="370" height="859" id="menu_prawe_xA0_Obraz" xlink:href="BB8ED0CA.png"  transform="matrix(1 0 0 1 375.9736 -314.3779)">
	</image>
</g>
<g id="Group_1_xA0_Obraz_1_" style="display:none;">
	
		<image style="display:inline;overflow:visible;" width="1050" height="27" id="Group_1_xA0_Obraz" xlink:href="BB8ED0C8.png"  transform="matrix(1 0 0 1 -304.0264 543.6221)">
	</image>
</g>
<g id="E-mail_address___Password___NICK___city___Country___Birthdate_1_" style="display:none;">
	<g id="E-mail_address___Password___NICK___city___Country___Birthdate" style="display:inline;">
		<path style="fill:#6FD8D4;" d="M-159.026-203.378v-9.625h7.099v1.375h-5.679v2.75h4.259v1.375h-4.259v2.75h5.679v1.375H-159.026z"
			/>
		<path style="fill:#6FD8D4;" d="M-150.507-207.503v-1.375h7.099v1.375H-150.507z"/>
		<path style="fill:#6FD8D4;" d="M-141.988-203.378v-9.625h1.42v1.375h1.42v1.375h-1.42v6.875H-141.988z M-139.148-207.503v-2.75
			h1.419v2.75H-139.148z M-136.309-203.378v-6.875h-1.42v-1.375h1.42v-1.375h1.42v9.625H-136.309z"/>
		<path style="fill:#6FD8D4;" d="M-133.469-203.378v-8.25h1.42v2.75h4.259v-2.75h1.42v8.25h-1.42v-4.125h-4.259v4.125H-133.469z
			 M-132.049-211.628v-1.375h4.259v1.375H-132.049z"/>
		<path style="fill:#6FD8D4;" d="M-124.95-203.378v-1.375h1.42v-6.875h-1.42v-1.375h4.259v1.375h-1.419v6.875h1.419v1.375H-124.95z"
			/>
		<path style="fill:#6FD8D4;" d="M-119.271-203.378v-9.625h1.42v8.25h5.679v1.375H-119.271z"/>
		<path style="fill:#6FD8D4;" d="M-103.653-203.378v-8.25h1.42v2.75h4.259v-2.75h1.42v8.25h-1.42v-4.125h-4.259v4.125H-103.653z
			 M-102.233-211.628v-1.375h4.259v1.375H-102.233z"/>
		<path style="fill:#6FD8D4;" d="M-95.134-203.378v-9.625h5.679v1.375h-4.259v6.875h4.259v1.375H-95.134z M-89.455-204.753v-6.875
			h1.42v6.875H-89.455z"/>
		<path style="fill:#6FD8D4;" d="M-86.615-203.378v-9.625h5.679v1.375h-4.259v6.875h4.259v1.375H-86.615z M-80.936-204.753v-6.875
			h1.42v6.875H-80.936z"/>
		<path style="fill:#6FD8D4;" d="M-78.096-203.378v-9.625h5.679v1.375h-4.259v2.75h4.259v1.375h-1.42v1.375h-1.419v-1.375h-1.42
			v4.125H-78.096z M-73.836-204.753v-1.375h1.42v1.375H-73.836z M-72.417-208.878v-2.75h1.42v2.75H-72.417z M-72.417-203.378v-1.375
			h1.42v1.375H-72.417z"/>
		<path style="fill:#6FD8D4;" d="M-69.577-203.378v-9.625h7.099v1.375h-5.679v2.75h4.259v1.375h-4.259v2.75h5.679v1.375H-69.577z"/>
		<path style="fill:#6FD8D4;" d="M-61.058-208.878v-2.75h1.42v2.75H-61.058z M-61.058-203.378v-1.375h5.679v1.375H-61.058z
			 M-59.638-211.628v-1.375h5.679v1.375H-59.638z M-59.638-207.503v-1.375h4.259v1.375H-59.638z M-55.378-204.753v-2.75h1.42v2.75
			H-55.378z"/>
		<path style="fill:#6FD8D4;" d="M-52.539-208.878v-2.75h1.42v2.75H-52.539z M-52.539-203.378v-1.375h5.679v1.375H-52.539z
			 M-51.119-211.628v-1.375h5.679v1.375H-51.119z M-51.119-207.503v-1.375h4.259v1.375H-51.119z M-46.859-204.753v-2.75h1.42v2.75
			H-46.859z"/>
		<path style="fill:#595959;" d="M-159.026-161.378v-9.625h5.679v1.375h-4.259v2.75h4.259v1.375h-4.259v4.125H-159.026z
			 M-153.347-166.878v-2.75h1.42v2.75H-153.347z"/>
		<path style="fill:#595959;" d="M-150.507-161.378v-8.25h1.42v2.75h4.259v-2.75h1.42v8.25h-1.42v-4.125h-4.259v4.125H-150.507z
			 M-149.087-169.628v-1.375h4.259v1.375H-149.087z"/>
		<path style="fill:#595959;" d="M-141.988-166.878v-2.75h1.42v2.75H-141.988z M-141.988-161.378v-1.375h5.679v1.375H-141.988z
			 M-140.568-169.628v-1.375h5.679v1.375H-140.568z M-140.568-165.503v-1.375h4.259v1.375H-140.568z M-136.309-162.753v-2.75h1.42
			v2.75H-136.309z"/>
		<path style="fill:#595959;" d="M-133.469-166.878v-2.75h1.42v2.75H-133.469z M-133.469-161.378v-1.375h5.679v1.375H-133.469z
			 M-132.049-169.628v-1.375h5.679v1.375H-132.049z M-132.049-165.503v-1.375h4.259v1.375H-132.049z M-127.79-162.753v-2.75h1.42
			v2.75H-127.79z"/>
		<path style="fill:#595959;" d="M-124.95-162.753v-8.25h1.42v8.25H-124.95z M-123.53-161.378v-1.375h1.42v1.375H-123.53z
			 M-122.11-162.753v-4.125h1.419v4.125H-122.11z M-120.691-161.378v-1.375h1.42v1.375H-120.691z M-119.271-162.753v-8.25h1.42v8.25
			H-119.271z"/>
		<path style="fill:#595959;" d="M-116.431-162.753v-6.875h1.42v6.875H-116.431z M-115.011-169.628v-1.375h4.259v1.375H-115.011z
			 M-115.011-161.378v-1.375h4.259v1.375H-115.011z M-110.752-162.753v-6.875h1.42v6.875H-110.752z"/>
		<path style="fill:#595959;" d="M-107.912-161.378v-9.625h5.679v1.375h-4.259v2.75h4.259v1.375h-1.42v1.375h-1.419v-1.375h-1.42
			v4.125H-107.912z M-103.653-162.753v-1.375h1.42v1.375H-103.653z M-102.233-166.878v-2.75h1.42v2.75H-102.233z M-102.233-161.378
			v-1.375h1.42v1.375H-102.233z"/>
		<path style="fill:#595959;" d="M-99.393-161.378v-9.625h5.679v1.375h-4.259v6.875h4.259v1.375H-99.393z M-93.714-162.753v-6.875
			h1.42v6.875H-93.714z"/>
		<path style="fill:#595959;" d="M-159.026-119.378v-9.625h1.42v2.75h1.42v1.375h-1.42v5.5H-159.026z M-156.187-123.503v-1.375
			h1.419v1.375H-156.187z M-153.347-119.378v-2.75h-1.42v-1.375h1.42v-5.5h1.42v9.625H-153.347z"/>
		<path style="fill:#595959;" d="M-150.507-119.378v-1.375h1.42v-6.875h-1.42v-1.375h4.259v1.375h-1.419v6.875h1.419v1.375H-150.507
			z"/>
		<path style="fill:#595959;" d="M-144.828-120.753v-6.875h1.42v6.875H-144.828z M-143.408-127.628v-1.375h4.259v1.375H-143.408z
			 M-143.408-119.378v-1.375h4.259v1.375H-143.408z M-139.149-126.253v-1.375h1.42v1.375H-139.149z M-139.149-120.753v-1.375h1.42
			v1.375H-139.149z"/>
		<path style="fill:#595959;" d="M-136.309-119.378v-9.625h1.42v4.125h1.42v1.375h-1.42v4.125H-136.309z M-133.469-124.878v-1.375
			h1.419v1.375H-133.469z M-133.469-122.128v-1.375h1.419v1.375H-133.469z M-132.05-126.253v-1.375h1.42v1.375H-132.05z
			 M-132.05-120.753v-1.375h1.42v1.375H-132.05z M-130.63-127.628v-1.375h1.42v1.375H-130.63z M-130.63-119.378v-1.375h1.42v1.375
			H-130.63z"/>
		<path style="fill:#595959;" d="M-159.026-78.753v-6.875h1.42v6.875H-159.026z M-157.606-85.628v-1.375h4.259v1.375H-157.606z
			 M-157.606-77.378v-1.375h4.259v1.375H-157.606z M-153.347-84.253v-1.375h1.42v1.375H-153.347z M-153.347-78.753v-1.375h1.42
			v1.375H-153.347z"/>
		<path style="fill:#595959;" d="M-150.507-77.378v-1.375h1.42v-6.875h-1.42v-1.375h4.259v1.375h-1.419v6.875h1.419v1.375H-150.507z
			"/>
		<path style="fill:#595959;" d="M-141.988-77.378v-8.25h-2.84v-1.375h7.099v1.375h-2.84v8.25H-141.988z"/>
		<path style="fill:#595959;" d="M-136.309-82.878v-4.125h1.42v4.125H-136.309z M-134.889-81.503v-1.375h1.42v1.375H-134.889z
			 M-133.469-77.378v-4.125h1.419v4.125H-133.469z M-132.05-81.503v-1.375h1.42v1.375H-132.05z M-130.63-82.878v-4.125h1.42v4.125
			H-130.63z"/>
		<path style="fill:#595959;" d="M-159.026-36.753v-6.875h1.42v6.875H-159.026z M-157.606-43.628v-1.375h4.259v1.375H-157.606z
			 M-157.606-35.378v-1.375h4.259v1.375H-157.606z M-153.347-42.253v-1.375h1.42v1.375H-153.347z M-153.347-36.753v-1.375h1.42
			v1.375H-153.347z"/>
		<path style="fill:#595959;" d="M-150.507-36.753v-6.875h1.42v6.875H-150.507z M-149.087-43.628v-1.375h4.259v1.375H-149.087z
			 M-149.087-35.378v-1.375h4.259v1.375H-149.087z M-144.828-36.753v-6.875h1.42v6.875H-144.828z"/>
		<path style="fill:#595959;" d="M-141.988-36.753v-8.25h1.42v8.25H-141.988z M-140.568-35.378v-1.375h4.259v1.375H-140.568z
			 M-136.309-36.753v-8.25h1.42v8.25H-136.309z"/>
		<path style="fill:#595959;" d="M-133.469-35.378v-9.625h1.42v2.75h1.42v1.375h-1.42v5.5H-133.469z M-130.629-39.503v-1.375h1.419
			v1.375H-130.629z M-127.79-35.378v-2.75h-1.42v-1.375h1.42v-5.5h1.42v9.625H-127.79z"/>
		<path style="fill:#595959;" d="M-122.11-35.378v-8.25h-2.84v-1.375h7.099v1.375h-2.84v8.25H-122.11z"/>
		<path style="fill:#595959;" d="M-116.431-35.378v-9.625h5.679v1.375h-4.259v2.75h4.259v1.375h-1.42v1.375h-1.419v-1.375h-1.42
			v4.125H-116.431z M-112.172-36.753v-1.375h1.42v1.375H-112.172z M-110.752-40.878v-2.75h1.42v2.75H-110.752z M-110.752-35.378
			v-1.375h1.42v1.375H-110.752z"/>
		<path style="fill:#595959;" d="M-107.912-40.878v-4.125h1.42v4.125H-107.912z M-106.492-39.503v-1.375h1.42v1.375H-106.492z
			 M-105.072-35.378v-4.125h1.419v4.125H-105.072z M-103.653-39.503v-1.375h1.42v1.375H-103.653z M-102.233-40.878v-4.125h1.42
			v4.125H-102.233z"/>
		<path style="fill:#595959;" d="M-159.026,6.622v-9.625h5.679v1.375h-4.259v2.75h4.259v1.375h-4.259v2.75h4.259v1.375H-159.026z
			 M-153.347,1.122v-2.75h1.42v2.75H-153.347z M-153.347,5.247v-2.75h1.42v2.75H-153.347z"/>
		<path style="fill:#595959;" d="M-150.507,6.622V5.247h1.42v-6.875h-1.42v-1.375h4.259v1.375h-1.419v6.875h1.419v1.375H-150.507z"
			/>
		<path style="fill:#595959;" d="M-144.828,6.622v-9.625h5.679v1.375h-4.259v2.75h4.259v1.375h-1.42v1.375h-1.419V2.497h-1.42v4.125
			H-144.828z M-140.569,5.247V3.872h1.42v1.375H-140.569z M-139.149,1.122v-2.75h1.42v2.75H-139.149z M-139.149,6.622V5.247h1.42
			v1.375H-139.149z"/>
		<path style="fill:#595959;" d="M-133.469,6.622v-8.25h-2.84v-1.375h7.099v1.375h-2.84v8.25H-133.469z"/>
		<path style="fill:#595959;" d="M-127.79,6.622v-9.625h1.42v4.125h4.259v-4.125h1.42v9.625h-1.42V2.497h-4.259v4.125H-127.79z"/>
		<path style="fill:#595959;" d="M-119.271,6.622v-9.625h5.679v1.375h-4.259v6.875h4.259v1.375H-119.271z M-113.592,5.247v-6.875
			h1.42v6.875H-113.592z"/>
		<path style="fill:#595959;" d="M-110.752,6.622v-8.25h1.42v2.75h4.259v-2.75h1.42v8.25h-1.42V2.497h-4.259v4.125H-110.752z
			 M-109.332-1.628v-1.375h4.259v1.375H-109.332z"/>
		<path style="fill:#595959;" d="M-99.393,6.622v-8.25h-2.84v-1.375h7.099v1.375h-2.84v8.25H-99.393z"/>
		<path style="fill:#595959;" d="M-93.714,6.622v-9.625h7.099v1.375h-5.679v2.75h4.259v1.375h-4.259v2.75h5.679v1.375H-93.714z"/>
		<path style="fill:#595959;" d="M-14.203,6.622V5.247h1.42v-5.5h-1.42v-1.375h1.42v-1.375h1.42v8.25h1.419v1.375H-14.203z"/>
		<path style="fill:#595959;" d="M41.17,5.247V3.872h1.42v1.375H41.17z M42.59,6.622V5.247h2.839v1.375H42.59z M45.43,5.247v-6.875
			H44.01v-1.375h4.259v1.375h-1.42v6.875H45.43z"/>
		<path style="fill:#595959;" d="M49.689,6.622v-8.25h1.42v2.75h4.259v-2.75h1.42v8.25h-1.42V2.497h-4.259v4.125H49.689z
			 M51.109-1.628v-1.375h4.259v1.375H51.109z"/>
		<path style="fill:#595959;" d="M58.208,6.622v-9.625h1.42v2.75h1.42v1.375h-1.42v5.5H58.208z M61.048,2.497V1.122h1.419v1.375
			H61.048z M63.888,6.622v-2.75h-1.42V2.497h1.42v-5.5h1.42v9.625H63.888z"/>
		<path style="fill:#595959;" d="M66.728,5.247v-8.25h1.42v8.25H66.728z M68.147,6.622V5.247h4.259v1.375H68.147z M72.407,5.247
			v-8.25h1.42v8.25H72.407z"/>
		<path style="fill:#595959;" d="M75.247,6.622v-8.25h1.42v2.75h4.259v-2.75h1.42v8.25h-1.42V2.497h-4.259v4.125H75.247z
			 M76.667-1.628v-1.375h4.259v1.375H76.667z"/>
		<path style="fill:#595959;" d="M83.766,6.622v-9.625h5.679v1.375h-4.259v2.75h4.259v1.375h-1.42v1.375h-1.419V2.497h-1.42v4.125
			H83.766z M88.025,5.247V3.872h1.42v1.375H88.025z M89.445,1.122v-2.75h1.42v2.75H89.445z M89.445,6.622V5.247h1.42v1.375H89.445z"
			/>
		<path style="fill:#595959;" d="M92.285,1.122v-4.125h1.42v4.125H92.285z M93.705,2.497V1.122h1.42v1.375H93.705z M95.125,6.622
			V2.497h1.419v4.125H95.125z M96.544,2.497V1.122h1.42v1.375H96.544z M97.964,1.122v-4.125h1.42v4.125H97.964z"/>
		<path style="fill:#595959;" d="M157.597-0.253v-1.375h1.42v1.375H157.597z M157.597,6.622V5.247h1.42V3.872h1.42v1.375h4.26v1.375
			H157.597z M159.017-1.628v-1.375h4.26v1.375H159.017z M160.437,3.872V2.497h1.42v1.375H160.437z M161.856,2.497V1.122h1.42v1.375
			H161.856z M163.276,1.122v-2.75h1.42v2.75H163.276z"/>
		<path style="fill:#595959;" d="M166.116,5.247v-6.875h1.42v4.125h1.42v1.375h-1.42v1.375H166.116z M167.536-1.628v-1.375h4.26
			v1.375H167.536z M167.536,6.622V5.247h4.26v1.375H167.536z M168.956,2.497V1.122h1.42v1.375H168.956z M171.796,5.247V1.122h-1.42
			v-1.375h1.42v-1.375h1.42v6.875H171.796z"/>
		<path style="fill:#595959;" d="M174.636,6.622V5.247h1.42v-5.5h-1.42v-1.375h1.42v-1.375h1.42v8.25h1.42v1.375H174.636z"/>
		<path style="fill:#595959;" d="M180.315,5.247v-6.875h1.42v4.125h1.42v1.375h-1.42v1.375H180.315z M181.735-1.628v-1.375h4.26
			v1.375H181.735z M181.735,6.622V5.247h4.26v1.375H181.735z M183.155,2.497V1.122h1.42v1.375H183.155z M185.995,5.247V1.122h-1.42
			v-1.375h1.42v-1.375h1.42v6.875H185.995z"/>
		<path style="fill:#979797;" d="M-159.026,48.622v-9.625h1.42v2.75h1.42v1.375h-1.42v5.5H-159.026z M-156.187,44.497v-1.375h1.419
			v1.375H-156.187z M-153.347,48.622v-2.75h-1.42v-1.375h1.42v-5.5h1.42v9.625H-153.347z"/>
		<path style="fill:#979797;" d="M-150.507,48.622v-9.625h7.099v1.375h-5.679v2.75h4.259v1.375h-4.259v2.75h5.679v1.375H-150.507z"
			/>
		<path style="fill:#979797;" d="M-141.988,47.247v-8.25h1.42v8.25H-141.988z M-140.568,48.622v-1.375h1.42v1.375H-140.568z
			 M-139.148,47.247v-4.125h1.419v4.125H-139.148z M-137.729,48.622v-1.375h1.42v1.375H-137.729z M-136.309,47.247v-8.25h1.42v8.25
			H-136.309z"/>
		<path style="fill:#979797;" d="M-133.469,43.122v-2.75h1.42v2.75H-133.469z M-133.469,48.622v-1.375h5.679v1.375H-133.469z
			 M-132.049,40.372v-1.375h5.679v1.375H-132.049z M-132.049,44.497v-1.375h4.259v1.375H-132.049z M-127.79,47.247v-2.75h1.42v2.75
			H-127.79z"/>
		<path style="fill:#979797;" d="M-124.95,48.622v-9.625h1.42v8.25h5.679v1.375H-124.95z"/>
		<path style="fill:#979797;" d="M-116.431,48.622v-9.625h7.099v1.375h-5.679v2.75h4.259v1.375h-4.259v2.75h5.679v1.375H-116.431z"
			/>
		<path style="fill:#979797;" d="M-105.072,48.622v-8.25h-2.84v-1.375h7.099v1.375h-2.84v8.25H-105.072z"/>
		<path style="fill:#979797;" d="M-96.553,48.622v-8.25h-2.84v-1.375h7.099v1.375h-2.84v8.25H-96.553z"/>
		<path style="fill:#979797;" d="M-90.874,48.622v-9.625h7.099v1.375h-5.679v2.75h4.259v1.375h-4.259v2.75h5.679v1.375H-90.874z"/>
		<path style="fill:#979797;" d="M-82.355,48.622v-9.625h5.679v1.375h-4.259v2.75h4.259v1.375h-1.42v1.375h-1.419v-1.375h-1.42
			v4.125H-82.355z M-78.096,47.247v-1.375h1.42v1.375H-78.096z M-76.676,43.122v-2.75h1.42v2.75H-76.676z M-76.676,48.622v-1.375
			h1.42v1.375H-76.676z"/>
	</g>
</g>
<g id="Rectangle_28_copy_9_1_" style="display:none;enable-background:new    ;">
	<g id="Rectangle_28_copy_9" style="display:inline;">
		<g>
			<rect x="-162.026" y="-193.378" style="fill:#C9C9C9;" width="384" height="1"/>
		</g>
	</g>
</g>
<g id="Rectangle_28_copy_9_kopia_1_" style="display:none;enable-background:new    ;">
	<g id="Rectangle_28_copy_9_kopia" style="display:inline;">
		<g>
			<rect x="-162.026" y="-151.378" style="fill:#C9C9C9;" width="384" height="1"/>
		</g>
	</g>
</g>
<g id="Rectangle_28_copy_9_kopia_2_1_" style="display:none;enable-background:new    ;">
	<g id="Rectangle_28_copy_9_kopia_2" style="display:inline;">
		<g>
			<rect x="-162.026" y="-109.378" style="fill:#C9C9C9;" width="384" height="1"/>
		</g>
	</g>
</g>
<g id="Rectangle_28_copy_9_kopia_3_1_" style="display:none;enable-background:new    ;">
	<g id="Rectangle_28_copy_9_kopia_3" style="display:inline;">
		<g>
			<rect x="-162.026" y="-68.378" style="fill:#C9C9C9;" width="384" height="1"/>
		</g>
	</g>
</g>
<g id="Rectangle_28_copy_9_kopia_4_1_" style="display:none;enable-background:new    ;">
	<g id="Rectangle_28_copy_9_kopia_4" style="display:inline;">
		<g>
			<rect x="-162.026" y="-26.378" style="fill:#C9C9C9;" width="384" height="1"/>
		</g>
	</g>
</g>
<g id="Rectangle_1_2_" style="display:none;enable-background:new    ;">
	<defs>
		<rect id="SVGID_1_" x="36.974" y="-355.378" style="enable-background:new    ;" width="155" height="30"/>
	</defs>
	<clipPath id="SVGID_2_" style="display:inline;">
		<use xlink:href="#SVGID_1_"  style="overflow:visible;"/>
	</clipPath>
	<g style="display:inline;clip-path:url(#SVGID_2_);">
		
			<image style="overflow:visible;" width="1300" height="942" id="Rectangle_1_xA0_Obraz_2_" xlink:href="BB8ED0D6.png"  transform="matrix(1 0 0 1 -554.0264 -371.3779)">
		</image>
	</g>
</g>
<g id="Rectangle_1_4_" style="display:none;enable-background:new    ;">
	<defs>
		<rect id="SVGID_3_" x="-26.026" y="-13.378" style="enable-background:new    ;" width="47" height="30"/>
	</defs>
	<clipPath id="SVGID_4_" style="display:inline;">
		<use xlink:href="#SVGID_3_"  style="overflow:visible;"/>
	</clipPath>
	<g style="display:inline;clip-path:url(#SVGID_4_);">
		
			<image style="overflow:visible;" width="1300" height="942" id="Rectangle_1_xA0_Obraz_1_" xlink:href="BB8ED0D9.png"  transform="matrix(1 0 0 1 -554.0264 -371.3779)">
		</image>
	</g>
</g>
<g id="Rectangle_1_kopia_2_" style="display:none;enable-background:new    ;">
	<defs>
		<rect id="SVGID_5_" x="27.974" y="-13.378" style="enable-background:new    ;" width="110" height="30"/>
	</defs>
	<clipPath id="SVGID_6_" style="display:inline;">
		<use xlink:href="#SVGID_5_"  style="overflow:visible;"/>
	</clipPath>
	<g style="display:inline;clip-path:url(#SVGID_6_);">
		
			<image style="overflow:visible;" width="1300" height="942" id="Rectangle_1_kopia_xA0_Obraz" xlink:href="BB8ED0DA.png"  transform="matrix(1 0 0 1 -554.0264 -371.3779)">
		</image>
	</g>
</g>
<g id="Rectangle_1_kopia_2_2_" style="display:none;enable-background:new    ;">
	<defs>
		<rect id="SVGID_7_" x="142.974" y="-13.378" style="enable-background:new    ;" width="78" height="30"/>
	</defs>
	<clipPath id="SVGID_8_" style="display:inline;">
		<use xlink:href="#SVGID_7_"  style="overflow:visible;"/>
	</clipPath>
	<g style="display:inline;clip-path:url(#SVGID_8_);">
		
			<image style="overflow:visible;" width="1300" height="942" id="Rectangle_1_kopia_2_xA0_Obraz" xlink:href="BB8ED0D8.png"  transform="matrix(1 0 0 1 -554.0264 -371.3779)">
		</image>
	</g>
</g>
<g id="_x3E_READ_MORE_copy_xA0_Obraz_1_" style="display:none;">
	
		<image style="display:inline;overflow:visible;" width="127" height="19" id="_x3E_READ_MORE_copy_xA0_Obraz" xlink:href="1BA42D8D.png"  transform="matrix(1 0 0 1 93.9736 60.6221)">
	</image>
</g>
<g id="Software_xA0_Obraz_1_" style="display:none;">
	
		<image style="display:inline;overflow:visible;" width="188" height="228" id="Software_xA0_Obraz" xlink:href="1BA42D83.png"  transform="matrix(1 0 0 1 541.9736 -277.3779)">
	</image>
</g>
<g id="gura_xA0_Obraz_1_" style="display:none;">
	
		<image style="display:inline;overflow:visible;" width="1300" height="57" id="gura_xA0_Obraz" xlink:href="1BA42D85.png"  transform="matrix(1 0 0 1 -554.0264 -371.3779)">
	</image>
</g>
<g id="Rectangle_1_6_" style="display:none;enable-background:new    ;">
	<defs>
		<rect id="SVGID_9_" x="-63.026" y="38.622" style="enable-background:new    ;" width="12" height="12"/>
	</defs>
	<clipPath id="SVGID_10_" style="display:inline;">
		<use xlink:href="#SVGID_9_"  style="overflow:visible;"/>
	</clipPath>
	<g style="display:inline;clip-path:url(#SVGID_10_);">
		
			<image style="overflow:visible;" width="1300" height="942" id="Rectangle_1_xA0_Obraz" xlink:href="1BA42D87.png"  transform="matrix(1 0 0 1 -554.0264 -371.3779)">
		</image>
	</g>
</g>
<g id="Forma_1_1_" style="display:none;enable-background:new    ;">
	<g id="Forma_1" style="display:inline;">
		<g>
			<polygon style="fill:#6FD8D4;" points="-52.946,39.622 -58.294,44.864 -61.109,42.111 -63.026,44 -58.29,48.623 -51.027,41.503 
							"/>
		</g>
	</g>
</g>
<g id="menu_lewe_xA0_Obraz_1_" style="display:none;">
	
		<image style="display:inline;overflow:visible;" width="251" height="885" id="menu_lewe_xA0_Obraz" xlink:href="1BA42D84.png"  transform="matrix(1 0 0 1 -554.0264 -314.3779)">
	</image>
</g>
<g id="_x3E__3_" style="enable-background:new    ;">
	<g id="_x3E_">
		<g>
			<polygon style="fill:#9A9A9A;" points="9,0 9,2.228 8.964,2.264 6.75,2.264 6.75,4.491 6.714,4.527 4.536,4.527 4.5,4.491 
				4.5,2.264 2.286,2.264 2.25,2.228 2.25,0 0,0 0,2.264 2.214,2.264 2.25,2.3 2.25,4.527 4.464,4.527 4.5,4.563 4.5,6.791 
				6.75,6.791 6.75,4.563 6.786,4.527 9,4.527 9,2.3 9.036,2.264 11.25,2.264 11.25,0 			"/>
		</g>
	</g>
</g>
<g id="_x3E__2_" style="display:none;">
	<g style="display:inline;">
		<path style="fill:#9A9A9A;" d="M127.249,0v2.264h-2.214L124.999,2.3v2.228h-2.214l-0.036,0.036v2.228h-2.25V4.563l-0.036-0.036
			h-2.214V2.3l-0.036-0.037h-2.214V0h2.25v2.228l0.036,0.036h2.214v2.228l0.036,0.036h2.178l0.036-0.036V2.263h2.214l0.036-0.036V0
			H127.249z"/>
	</g>
</g>
<g id="_x3E__1_" style="display:none;">
	<g style="display:inline;">
		<path style="fill:#9A9A9A;" d="M212.249,0v2.264h-2.214L209.999,2.3v2.228h-2.214l-0.036,0.036v2.228h-2.25V4.563l-0.036-0.036
			h-2.214V2.3l-0.036-0.037h-2.214V0h2.25v2.228l0.036,0.036h2.214v2.228l0.036,0.036h2.178l0.036-0.036V2.263h2.214l0.036-0.036V0
			H212.249z"/>
	</g>
</g>
<g id="Prostokąt_1_1_" style="display:none;enable-background:new    ;">
	<g id="Prostokąt_1" style="display:inline;">
		<g>
			<rect x="-31.026" y="-371.378" style="fill-rule:evenodd;clip-rule:evenodd;fill:#1E1E1E;" width="184" height="49"/>
		</g>
	</g>
</g>
</svg>
