<?xml version="1.0" encoding="utf-8"?>
<!-- Generator: Adobe Illustrator 16.0.0, SVG Export Plug-In . SVG Version: 6.00 Build 0)  -->
<!DOCTYPE svg PUBLIC "-//W3C//DTD SVG 1.1//EN" "http://www.w3.org/Graphics/SVG/1.1/DTD/svg11.dtd">
<svg version="1.1" id="Layer_1" xmlns="http://www.w3.org/2000/svg" xmlns:xlink="http://www.w3.org/1999/xlink" x="0px" y="0px"
	 width="14.173px" height="14.173px" viewBox="18.423 18.424 14.173 14.173"
	 style="enable-background:new 18.423 18.424 14.173 14.173;" xml:space="preserve">
<g>
	<g>
		<g>
			<rect x="28.816" y="18.424" style="fill:#474747;" width="1.891" height="0.945"/>
		</g>
	</g>
	<g>
		<g>
			<rect x="31.651" y="20.313" style="fill:#474747;" width="0.945" height="1.89"/>
		</g>
	</g>
	<g>
		<g>
			<polygon style="fill:#474747;" points="23.147,31.652 23.147,30.707 24.092,30.707 24.092,29.762 25.037,29.762 25.037,28.817 
				25.982,28.817 25.982,27.872 26.927,27.872 26.927,26.927 27.872,26.927 27.872,25.983 28.816,25.983 28.816,25.038 
				29.762,25.038 29.762,24.093 30.707,24.093 30.707,23.148 31.651,23.148 31.651,22.203 30.707,22.203 30.707,21.258 
				29.762,21.258 29.762,20.313 28.816,20.313 28.816,19.368 27.872,19.368 27.872,20.313 26.927,20.313 26.927,21.258 
				25.982,21.258 25.982,22.203 25.037,22.203 25.037,23.148 24.092,23.148 24.092,24.093 23.147,24.093 23.147,25.038 
				22.203,25.038 22.203,25.983 21.258,25.983 21.258,26.927 20.313,26.927 20.313,27.872 19.368,27.872 19.368,28.817 
				20.313,28.817 20.313,29.762 21.258,29.762 21.258,30.707 22.203,30.707 22.203,31.652 20.313,31.652 20.313,30.707 
				19.368,30.707 19.368,28.817 18.423,28.817 18.423,32.597 32.597,32.597 32.597,31.652 			"/>
		</g>
	</g>
	<g>
		<g>
			<rect x="30.707" y="19.368" style="fill:#474747;" width="0.944" height="0.945"/>
		</g>
	</g>
</g>
</svg>
