<?xml version="1.0" encoding="utf-8"?>
<!-- Generator: Adobe Illustrator 16.0.0, SVG Export Plug-In . SVG Version: 6.00 Build 0)  -->
<!DOCTYPE svg PUBLIC "-//W3C//DTD SVG 1.1//EN" "http://www.w3.org/Graphics/SVG/1.1/DTD/svg11.dtd">
<svg version="1.1" id="Layer_1" xmlns="http://www.w3.org/2000/svg" xmlns:xlink="http://www.w3.org/1999/xlink" x="0px" y="0px"
	 width="51.024px" height="51.023px" viewBox="1774.488 257.953 51.024 51.023"
	 enable-background="new 1774.488 257.953 51.024 51.023" xml:space="preserve">
<linearGradient id="SVGID_1_" gradientUnits="userSpaceOnUse" x1="1774.488" y1="283.4651" x2="1825.5125" y2="283.4651">
	<stop  offset="0" style="stop-color:#FFD94E"/>
	<stop  offset="1" style="stop-color:#F2B733"/>
</linearGradient>
<circle fill="url(#SVGID_1_)" cx="1800.001" cy="283.465" r="25.512"/>
<linearGradient id="SVGID_2_" gradientUnits="userSpaceOnUse" x1="1778.7439" y1="283.4651" x2="1821.2566" y2="283.4651">
	<stop  offset="0" style="stop-color:#F2BD33"/>
	<stop  offset="1" style="stop-color:#FFD94E"/>
</linearGradient>
<circle fill="url(#SVGID_2_)" cx="1800.001" cy="283.465" r="21.256"/>
<path fill="#1E1E1E" d="M1799.124,300.007v-2.913c-3.646-0.372-6.922-1.821-9.818-4.35l2.914-3.473
	c2.233,1.941,4.534,3.1,6.904,3.473v-7.742c-3.008-0.718-5.209-1.663-6.605-2.834c-1.396-1.17-2.095-2.905-2.095-5.208
	c0-2.301,0.802-4.184,2.413-5.646c1.61-1.463,3.706-2.261,6.287-2.395v-1.996h2.554v2.035c2.927,0.215,5.692,1.211,8.302,2.995
	l-2.596,3.671c-1.757-1.25-3.656-2.021-5.706-2.314v7.502h0.12c3.061,0.719,5.307,1.689,6.741,2.913
	c1.438,1.226,2.156,3.001,2.156,5.327c0,2.328-0.824,4.227-2.476,5.688c-1.649,1.466-3.829,2.263-6.544,2.396v2.873
	L1799.124,300.007L1799.124,300.007z M1796.306,274.247c-0.679,0.599-1.017,1.343-1.017,2.233c0,0.892,0.267,1.597,0.8,2.114
	c0.528,0.521,1.542,1.019,3.032,1.497v-6.904C1797.926,273.296,1796.986,273.648,1796.306,274.247z M1804.71,291.745
	c0.743-0.609,1.116-1.383,1.116-2.313c0-0.932-0.292-1.669-0.877-2.216c-0.588-0.546-1.68-1.058-3.272-1.535v7.184
	C1802.952,292.732,1803.963,292.358,1804.71,291.745z"/>
</svg>
