<?xml version="1.0" encoding="utf-8"?>
<!-- Generator: Adobe Illustrator 16.0.0, SVG Export Plug-In . SVG Version: 6.00 Build 0)  -->
<!DOCTYPE svg PUBLIC "-//W3C//DTD SVG 1.1//EN" "http://www.w3.org/Graphics/SVG/1.1/DTD/svg11.dtd">
<svg version="1.1" id="Layer_1" xmlns="http://www.w3.org/2000/svg" xmlns:xlink="http://www.w3.org/1999/xlink" x="0px" y="0px"
	 width="26.08px" height="19.842px" viewBox="12.47 15.589 26.08 19.842" style="enable-background:new 12.47 15.589 26.08 19.842;"
	 xml:space="preserve">
<g>
	<g>
		<path style="fill:#474747;" d="M12.47,15.589v19.842h26.08V15.589H12.47z M36.849,18.423h-1.134v1.701h1.134v13.606H14.171V20.124
			h1.134v-1.701h-1.134v-1.134h22.678V18.423L36.849,18.423z"/>
	</g>
</g>
<g>
	<g>
		<rect x="24.376" y="26.927" style="fill:#474747;" width="2.268" height="1.701"/>
	</g>
</g>
<g>
	<g>
		<rect x="26.644" y="25.226" style="fill:#474747;" width="2.268" height="1.701"/>
	</g>
</g>
<g>
	<g>
		<rect x="22.108" y="25.226" style="fill:#474747;" width="2.268" height="1.701"/>
	</g>
</g>
<g>
	<g>
		<rect x="19.84" y="23.526" style="fill:#474747;" width="2.268" height="1.701"/>
	</g>
</g>
<g>
	<g>
		<rect x="28.911" y="23.526" style="fill:#474747;" width="2.269" height="1.701"/>
	</g>
</g>
<g>
	<g>
		<rect x="17.572" y="21.825" style="fill:#474747;" width="2.268" height="1.701"/>
	</g>
</g>
<g>
	<g>
		<rect x="31.18" y="21.825" style="fill:#474747;" width="2.267" height="1.701"/>
	</g>
</g>
<g>
	<g>
		<rect x="15.305" y="20.124" style="fill:#474747;" width="2.268" height="1.701"/>
	</g>
</g>
<g>
	<g>
		<rect x="33.446" y="20.124" style="fill:#474747;" width="2.269" height="1.701"/>
	</g>
</g>
</svg>
