<?xml version="1.0" encoding="utf-8"?>
<!-- Generator: Adobe Illustrator 16.0.0, SVG Export Plug-In . SVG Version: 6.00 Build 0)  -->
<!DOCTYPE svg PUBLIC "-//W3C//DTD SVG 1.1//EN" "http://www.w3.org/Graphics/SVG/1.1/DTD/svg11.dtd">
<svg version="1.1" id="Warstwa_1" xmlns="http://www.w3.org/2000/svg" xmlns:xlink="http://www.w3.org/1999/xlink" x="0px" y="0px"
	 width="30.752px" height="28.004px" viewBox="0 0 30.752 28.004" enable-background="new 0 0 30.752 28.004" xml:space="preserve">
<g id="Background_xA0_Obraz_1_">
</g>
<g id="gura_xA0_Obraz_1_">
</g>
<g id="gura_zalogowany_xA0_Obraz_1_">
</g>
<g id="Group_1_1_">
	<g id="Rectangle_14_copy__x2B__Rectangle_15_2_" enable-background="new    ">
	</g>
	<g id="NOTEBOOK">
	</g>
	<g id="_x3E__4_">
	</g>
	<g id="_x3E__x0D__x3E__x0D__x3E__x0D__x3E__x0D__x3E__x03__x3E__x03_">
	</g>
	<g id="aSUS_KSD_K5OAB_ACER_TOSHIBA_SAMSUNG_1_">
	</g>
	<g id="back__x2B__Rectangle_15_copy_2_xA0_Obraz_1_">
	</g>
	<g id="back_1_">
	</g>
	<g id="Rectangle_1_2_" enable-background="new    ">
	</g>
	<g id="_x3C_Tekst_x3E_">
	</g>
	<g id="DODAJ_model____________x2B_">
	</g>
</g>
<g id="Group_2_1_">
	<g id="Rectangle_14_copy_2__x2B__Rectangle_15_copy_2_" enable-background="new    ">
	</g>
	<g id="k5oab">
	</g>
	<g id="_x3E__3_">
	</g>
	<g id="IMAGE_INFO_BIOS_kbc_x2F_ec_BOARD_VIEV_SCHEMATICS_SOLUTIONS_OTHERS_1_">
	</g>
	<g id="back">
	</g>
	<g id="do">
	</g>
</g>
<g id="czarny_xA0_Obraz_1_">
</g>
<g id="_x0D_NOTEBOOK__________x0D_PC__x0D_tblet_x0D_">
</g>
<g id="tutorial_x0D_software_x0D_">
</g>
<g id="_x3E__2_">
</g>
<g id="_x3E__1_">
</g>
<g id="_x3E_">
</g>
<g id="Forma_1" display="none">
	<g display="inline">
		<path fill="#2E9995" d="M7.036,18.314h16.68V7.722H7.036V18.314z M28.312,20.027h-1.516V5.289c0-0.377-0.307-0.682-0.684-0.682
			h-2.279H10.087H4.639c-0.377,0-0.683,0.305-0.683,0.682v14.738H2.44c-0.377,0-0.682,0.305-0.682,0.682
			c0,1.48,1.207,2.688,2.691,2.688h21.852c1.484,0,2.691-1.205,2.691-2.688C28.993,20.332,28.688,20.027,28.312,20.027z
			 M25.08,18.995c0,0.376-0.306,0.682-0.683,0.682H6.354c-0.377,0-0.683-0.306-0.683-0.682V7.041c0-0.376,0.306-0.682,0.683-0.682
			h18.043c0.377,0,0.683,0.306,0.683,0.682V18.995z"/>
	</g>
</g>
<g id="Forma_1_1_" display="none">
	<g display="inline">
		<path fill="#474747" d="M8.735,15.977h8.816c0.368,0,0.666-0.299,0.666-0.666c0-0.369-0.298-0.668-0.666-0.668H8.735
			c-0.367,0-0.665,0.299-0.665,0.668C8.07,15.678,8.368,15.977,8.735,15.977z M8.735,13.019h12.581c0.367,0,0.664-0.299,0.664-0.668
			s-0.297-0.668-0.664-0.668H8.735c-0.367,0-0.665,0.299-0.665,0.668S8.368,13.019,8.735,13.019z M8.735,10.474h13.338
			c0.367,0,0.666-0.299,0.666-0.668v-5.07c0-0.369-0.299-0.668-0.666-0.668H8.735c-0.367,0-0.665,0.299-0.665,0.668v5.07
			C8.07,10.175,8.368,10.474,8.735,10.474z M8.735,18.936h11.188c0.368,0,0.665-0.299,0.665-0.668c0-0.367-0.297-0.666-0.665-0.666
			H8.735c-0.367,0-0.665,0.299-0.665,0.666C8.07,18.637,8.368,18.936,8.735,18.936z M25.071,0.075H5.681
			c-0.735,0-1.334,0.601-1.334,1.339V26.59c0,0.739,0.599,1.338,1.334,1.338h19.39c0.736,0,1.334-0.6,1.334-1.338V1.414
			C26.405,0.676,25.808,0.075,25.071,0.075z M15.376,26.208c-0.462,0-0.837-0.376-0.837-0.841s0.375-0.842,0.837-0.842
			c0.463,0,0.838,0.377,0.838,0.842C16.214,25.831,15.839,26.208,15.376,26.208z M24.196,23.031H6.555V2.597h17.641V23.031z
			 M8.735,21.895h11.188c0.368,0,0.665-0.299,0.665-0.668c0-0.367-0.297-0.668-0.665-0.668H8.735c-0.367,0-0.665,0.301-0.665,0.668
			C8.07,21.596,8.368,21.895,8.735,21.895z"/>
	</g>
</g>
<g id="Forma_1_2_" display="none">
	<g display="inline">
		<path fill="#474747" d="M8.258,19.691v-6.081H2.283c-0.418,0-0.756-0.337-0.756-0.754c0-0.416,0.338-0.754,0.756-0.754h5.976
			v-1.941H2.283c-0.418,0-0.756-0.338-0.756-0.754c0-0.417,0.338-0.755,0.756-0.755h5.976V7.25c0-0.187,0.027-0.366,0.074-0.538
			h-6.05c-0.418,0-0.756-0.337-0.756-0.754c0-0.416,0.338-0.754,0.756-0.754h7.509c0.067,0,0.131,0.012,0.194,0.028
			c0.105-0.018,0.213-0.028,0.324-0.028h1.765V3.092c0-0.417-0.338-0.754-0.756-0.754H0.756C0.338,2.338,0,2.675,0,3.092V24.91
			c0,0.417,0.338,0.755,0.756,0.755h10.563c0.417,0,0.756-0.338,0.756-0.755v-3.174H10.31C9.179,21.738,8.258,20.82,8.258,19.691z
			 M6.038,21.256c-0.644,0-1.166-0.521-1.166-1.163s0.522-1.161,1.166-1.161s1.166,0.521,1.166,1.161
			C7.203,20.736,6.681,21.256,6.038,21.256z M30.213,6.712H10.31c-0.297,0-0.539,0.24-0.539,0.537v12.442
			c0,0.297,0.242,0.537,0.539,0.537h19.903c0.298,0,0.539-0.24,0.539-0.537V7.25C30.752,6.953,30.511,6.712,30.213,6.712z
			 M24.696,24.157h-2.016v-2.419h-4.839v2.419h-2.017c-0.418,0-0.756,0.338-0.756,0.755c0,0.416,0.338,0.754,0.756,0.754h2.771
			h3.327h2.772c0.418,0,0.756-0.338,0.756-0.754C25.454,24.495,25.114,24.157,24.696,24.157z"/>
	</g>
</g>
<g id="Forma_1_3_">
	<g>
		<path fill="#6FD8D4" d="M29.104,23.751l-5.486-5.487l3.914-2.262c0.307-0.177,0.484-0.513,0.459-0.865
			c-0.025-0.352-0.25-0.659-0.578-0.79l-9.248-3.689c0.178-0.693,0.27-1.404,0.27-2.127c0-4.703-3.825-8.53-8.526-8.53
			C5.203,0,1.378,3.827,1.378,8.53c0,4.704,3.825,8.531,8.527,8.531c0.723,0,1.435-0.093,2.127-0.271l3.688,9.251
			c0.132,0.328,0.438,0.553,0.791,0.578c0.354,0.024,0.688-0.152,0.864-0.458l2.261-3.915l5.486,5.487
			c0.173,0.174,0.406,0.271,0.65,0.271c0.246,0,0.479-0.099,0.652-0.271l2.678-2.678C29.464,24.695,29.464,24.111,29.104,23.751z
			 M9.957,7.383C9.615,7.246,9.225,7.326,8.964,7.587C8.703,7.848,8.623,8.238,8.76,8.581l1.169,2.932
			c-1.646-0.022-2.991-1.374-3.005-3.021C6.918,7.698,7.22,6.955,7.775,6.399c0.55-0.55,1.283-0.852,2.067-0.852
			c0.009,0,0.017,0,0.024,0c1.646,0.014,2.997,1.359,3.02,3.004L9.957,7.383z M16.435,9.967l-1.751-0.699
			c0.034-0.235,0.051-0.474,0.049-0.713c-0.021-2.654-2.196-4.83-4.85-4.852c-0.013,0-0.025,0-0.039,0
			c-1.276,0-2.473,0.494-3.371,1.393C5.564,6.003,5.07,7.215,5.08,8.507c0.021,2.653,2.196,4.829,4.85,4.851
			c0.013,0,0.024,0,0.037,0c0.228,0,0.454-0.018,0.678-0.049l0.698,1.751c-0.47,0.104-0.95,0.155-1.438,0.155
			c-3.686,0-6.684-2.999-6.684-6.686S6.22,1.845,9.906,1.845c3.686,0,6.684,2.999,6.684,6.686
			C16.59,9.017,16.537,9.497,16.435,9.967z"/>
	</g>
</g>
<g id="Forma_1_4_" display="none">
	<g display="inline">
		<path fill="#474747" d="M26.024,18.227l-1.297,0.002c-0.229,0-0.449,0.09-0.607,0.248c-0.391,0.389-0.913,0.604-1.473,0.604
			c-1.131,0.001-2.053-0.883-2.053-1.971s0.918-1.973,2.047-1.975c0.559-0.001,1.082,0.213,1.475,0.6
			c0.158,0.156,0.378,0.246,0.607,0.246l1.295-0.002c0.226,0,0.44-0.086,0.599-0.238c0.157-0.153,0.247-0.359,0.247-0.575
			c0,0,0,0,0-0.001l-0.01-6.512c0-0.216-0.09-0.423-0.248-0.574c-0.16-0.152-0.375-0.238-0.6-0.238l-7.43,0.012h-1.563V7.084V7.082
			c0-0.31,0.131-0.605,0.361-0.822c0.563-0.524,0.874-1.227,0.874-1.976V4.267c-0.002-1.524-1.29-2.764-2.874-2.771
			c-1.584,0.007-2.872,1.246-2.874,2.771v0.017c0,0.749,0.311,1.451,0.874,1.976c0.231,0.217,0.362,0.513,0.362,0.822v0.003
			l-0.001,0.768h-1.562L4.745,7.84c-0.225,0-0.44,0.086-0.599,0.238C3.987,8.23,3.897,8.437,3.897,8.653l-0.01,6.512
			c0,0.001,0,0.001,0,0.001c0,0.216,0.089,0.422,0.247,0.575c0.158,0.151,0.374,0.237,0.598,0.239h1.297
			c0.229,0.002,0.448-0.088,0.607-0.246c0.392-0.387,0.915-0.6,1.474-0.599c1.129,0.003,2.047,0.888,2.047,1.976
			c-0.001,1.087-0.923,1.971-2.054,1.97c-0.558-0.001-1.081-0.216-1.471-0.604c-0.16-0.158-0.379-0.248-0.608-0.248l-1.297-0.002
			c-0.467,0-0.846,0.362-0.847,0.813l0.009,6.648v0.002c0,0.447,0.378,0.813,0.845,0.813l8.63,0.006c0.225,0,0.44-0.085,0.599-0.236
			c0.159-0.152,0.248-0.359,0.249-0.576l0.001-0.688c0-0.001,0-0.001,0-0.002c0-0.22-0.093-0.431-0.257-0.584
			c-0.4-0.373-0.621-0.872-0.621-1.403v-0.012c0.002-1.083,0.917-1.964,2.042-1.969c1.125,0.005,2.04,0.886,2.042,1.969v0.012
			c0,0.531-0.221,1.03-0.621,1.403c-0.164,0.153-0.257,0.364-0.257,0.584c0,0.001,0,0.001,0,0.002l0.001,0.688
			c0,0.217,0.09,0.424,0.249,0.576c0.159,0.151,0.375,0.236,0.599,0.236l8.631-0.006c0.467-0.001,0.844-0.365,0.844-0.813v-0.002
			l0.01-6.648C26.872,18.588,26.493,18.225,26.024,18.227z"/>
	</g>
</g>
</svg>
